<svg id="Layer_1" data-name="Layer 1" xmlns="http://www.w3.org/2000/svg" viewBox="0 0 512 512"><title>github</title><path d="M512,9.7c0-5.86-6-9.7-11.85-9.7H255.41C114.35,0,0,114.3,0,255.88S115,512,256,512,512,397,512,255.39Z" fill="#595959"/><path id="path9-5" d="M142.57,242.53c-.5,0,5.48,12.87,5.64,12.87,13.05,23.68,38.2,38.4,80.64,42.46-6.06,4.6-13.33,13.33-14.34,23.4-7.61,4.92-22.93,6.54-34.83,2.79-16.69-5.27-23.07-38.28-48.05-33.57-5.41,1-4.33,4.58.34,7.61,7.62,4.92,14.78,11.08,20.3,24.2,4.25,10.06,13.18,28.06,41.4,28.06a123.87,123.87,0,0,0,19-1.35s.21,25.71.21,35.7c0,11.53-15.57,14.78-15.57,20.32,0,2.19,5.16,2.4,9.29,2.4,8.18,0,25.2-6.83,25.2-18.81,0-9.51.16-41.52.16-47.12,0-12.23,6.56-16.11,6.56-16.11s.81,65.33-1.56,74.09c-2.8,10.29-7.84,8.83-7.84,13.43,0,6.84,20.49,1.67,27.29-13.33,5.25-11.67,3-75.77,3-75.77l5.6-.12s.32,29.34.12,42.76c-.2,13.89-1.14,31.45,7.11,39.73,5.42,5.44,23,15,23,6.27,0-5.07-9.63-9.24-9.63-23V326.3c7.69,0,6.54,20.77,6.54,20.77l.56,38.62s-1.69,14.07,15.23,19.94c6,2.1,18.73,2.65,19.34-.84s-15.38-8.73-15.53-19.63c-.1-6.63.3-10.52.3-39.39s-3.88-39.55-17.41-48.05c41.72-4.28,67.55-14.6,80.13-42.23,1,0,5.13-12.9,4.59-12.9,2.82-10.43,4.36-22.77,4.64-37.38-.07-39.63-19-53.64-22.68-60.22,5.37-30-.9-43.64-3.81-48.33-10.75-3.82-37.4,9.83-52,19.45-23.72-6.93-73.9-6.27-92.72,1.79-34.72-24.85-53.09-21-53.09-21s-11.87,21.26-3.14,52.38c-11.42,14.55-19.94,24.84-19.94,52.13,0,15.39,1.82,29.15,5.9,41.16Z" fill="#fff"/></svg>